PathFileType	4	(X/Y/Z)	c:/Users/goper/Files/vsCode/490R/osim_files/A03/A03_Slow_06.trc
DataRate	CameraRate	NumFrames	NumMarkers	Units                	OrigDataRate	OrigDataStartFrame	OrigNumFrames
250.00	250.00	5	36	mm	250.0	2236	2981
                Frame#	Time	LPSIS			LASIS			LTH1			LTH2			LTH3			LTH4			LLFE			LMFE			LSH1			LSH2			LSH3			LSH4			LLMAL			LMMAL			LCAL			LMTP5			LTOE			LMTP1			RPSIS			RASIS			RTH1			RTH2			RTH3			RTH4			RLFE			RMFE			RSH1			RSH2			RSH3			RSH4			RLMAL			RMMAL			RCAL			RMTP1			RTOE			RMTP5		
		X1	Y1	Z1	X2	Y2	Z2	X3	Y3	Z3	X4	Y4	Z4	X5	Y5	Z5	X6	Y6	Z6	X7	Y7	Z7	X8	Y8	Z8	X9	Y9	Z9	X10	Y10	Z10	X11	Y11	Z11	X12	Y12	Z12	X13	Y13	Z13	X14	Y14	Z14	X15	Y15	Z15	X16	Y16	Z16	X17	Y17	Z17	X18	Y18	Z18	X19	Y19	Z19	X20	Y20	Z20	X21	Y21	Z21	X22	Y22	Z22	X23	Y23	Z23	X24	Y24	Z24	X25	Y25	Z25	X26	Y26	Z26	X27	Y27	Z27	X28	Y28	Z28	X29	Y29	Z29	X30	Y30	Z30	X31	Y31	Z31	X32	Y32	Z32	X33	Y33	Z33	X34	Y34	Z34	X35	Y35	Z35	X36	Y36	Z36

2236	8.94000	-2998.63965	1076.57446	272.67944	-3242.58813	993.33990	398.46640	-3226.60303	636.02435	426.83450	-3241.65967	596.10828	424.19699	-3286.26416	651.51697	406.74695	-3292.02148	608.15369	407.05441	-3236.69189	553.61932	415.01407	-3261.47803	553.15460	260.14240	-3196.71118	466.99664	411.15482	-3200.50513	419.10889	407.31317	-3259.55737	463.61758	407.16687	-3250.87988	415.98251	399.58890	-3210.92139	97.95387	364.55286	-3222.86157	108.54740	269.35724	-3141.87500	84.02427	310.55161	-3363.51953	49.45351	375.89447	-3390.03101	80.90681	307.12604	-3362.39844	59.77467	261.59982	-3001.67871	1083.39587	190.57977	-3248.33740	999.15009	100.04865	-3236.68262	642.31299	14.67276	-3238.86670	597.09058	16.92889	-3297.95312	640.13391	21.57092	-3293.81958	596.23285	24.15371	-3260.79102	563.87512	32.64200	-3288.47339	557.91040	157.86060	-3186.20728	548.57886	22.14645	-3158.84277	520.35974	6.37687	0.00000	0.00000	0.00000	0.00000	0.00000	0.00000	-2932.13159	304.29138	48.14619	0.00000	0.00000	0.00000	-2868.97559	335.85327	92.15323	-2939.89453	142.12637	171.18365	-2974.53296	123.77278	127.46343	-2933.78247	123.76707	56.01417
2237	8.94400	-3002.24463	1076.80786	273.04599	-3246.32104	993.67712	398.95566	-3229.30029	636.03882	427.19083	-3244.17163	596.08002	424.55997	-3289.02246	651.33868	407.21515	-3294.59058	607.94995	407.50241	-3239.35962	553.47797	415.37918	-3264.00757	553.11499	260.48160	-3198.85522	467.18652	411.41718	-3202.29077	419.26434	407.51193	-3261.64648	463.50748	407.38269	-3252.75293	415.92386	399.81946	-3211.04126	98.01391	364.50299	-3223.02441	108.58454	269.31128	-3142.16406	84.16319	310.56549	-3363.58130	49.37921	375.88251	-3390.21509	80.78564	307.09848	-3362.47070	59.63947	261.59421	-3005.66577	1083.53406	190.87666	-3252.90796	1000.17200	100.63622	-3244.27441	643.56097	15.24778	-3246.73877	598.33777	17.48885	-3305.47974	641.72742	22.32761	-3301.65820	597.88043	24.93933	-3268.72534	565.17700	33.32811	-3296.17773	559.59332	158.72777	-3194.33813	550.07190	22.47002	-3168.63525	520.95142	6.73498	0.00000	0.00000	0.00000	0.00000	0.00000	0.00000	-2940.88843	304.47333	48.22615	0.00000	0.00000	0.00000	-2877.68042	335.45993	92.62379	-2949.79053	142.68068	171.48866	-2984.68628	124.59646	127.91656	-2943.26514	123.98272	56.21363
2238	8.94800	-3006.54663	1076.79004	273.39850	-3249.98145	993.94385	399.39188	-3231.93726	636.07245	427.53970	-3246.89526	596.42780	425.24594	-3291.73657	651.12823	407.64978	-3297.14282	607.70044	407.96655	-3241.73096	553.59625	415.58954	-3266.51025	553.06604	260.76138	-3200.89136	467.33829	411.63068	-3204.14697	419.41794	407.74487	-3265.64795	462.95093	408.16403	-3254.58130	415.83905	400.01251	-3211.13184	98.06806	364.49384	-3223.11304	108.61084	269.32910	-3142.26074	84.28728	310.53302	-3362.06860	48.38698	374.16849	-3390.29053	80.56615	307.10156	-3362.55127	59.50199	261.57840	-3009.65894	1083.52856	191.12941	-3257.40332	1001.13391	101.25950	-3251.78052	644.73352	15.75972	-3254.56543	599.52795	18.03776	-3313.63794	644.56299	25.05010	-3309.40820	599.46564	25.71066	-3276.74609	566.58978	33.95385	-3303.68286	561.16272	159.54727	-3204.32642	550.73328	23.36262	-3173.25610	522.42426	9.57174	0.00000	0.00000	0.00000	0.00000	0.00000	0.00000	-2949.75366	304.45047	48.37159	0.00000	0.00000	0.00000	-2886.02148	335.02097	92.47772	-2959.77002	143.03403	171.80287	-2994.90649	125.20197	128.31287	-2953.71411	124.11859	56.51678
2239	8.95200	-3010.18530	1077.02905	273.71057	-3253.73706	994.17975	399.86032	-3234.56519	636.10321	427.91547	-3249.36548	596.37164	425.58511	-3294.47192	650.92676	408.12210	-3299.67358	607.44916	408.41928	-3244.32178	553.38904	415.97141	-3269.00537	552.98615	261.02008	-3203.05371	467.57495	411.82416	-3205.76050	419.48608	408.01929	-3267.65723	462.87360	408.39578	-3256.40576	415.74710	400.20175	-3211.22729	98.12501	364.49719	-3223.20825	108.59697	269.33029	-3142.32837	84.44337	310.52335	-3363.70288	49.14314	375.87628	-3390.38843	80.40796	307.09317	-3362.63525	59.37518	261.57657	-3013.70898	1083.60364	191.41437	-3261.95117	1002.08521	101.84792	-3259.19775	645.88678	16.34587	-3262.26318	600.72333	18.59986	-3321.02563	646.15582	25.83544	-3317.12476	601.00220	26.45117	-3284.67896	568.00256	34.64069	-3311.18140	562.77936	160.37018	-3211.12793	551.75330	23.21625	-3181.06567	523.23572	10.14471	-3247.83838	502.20084	30.99547	0.00000	0.00000	0.00000	-2958.72900	304.27234	48.44143	0.00000	0.00000	0.00000	-2894.52246	334.35294	92.42846	-2969.51538	142.68292	171.68793	-3006.73853	126.35555	128.48688	-2964.15186	123.96122	56.85883
2240	8.95600	-3014.13403	1077.13074	274.04904	-3257.45239	994.40161	400.33154	-3237.74854	636.55347	428.30298	-3251.51807	595.86182	425.66479	-3297.12866	650.66315	408.60172	-3302.20435	607.20410	408.89053	-3246.50293	553.41034	416.18893	-3271.45410	552.89441	261.31351	-3205.08521	467.72012	412.04254	-3207.53223	419.55508	408.20724	-3269.69922	462.81494	408.61871	-3258.15649	415.66037	400.42490	-3211.32788	98.19042	364.50333	-3223.34546	108.65180	269.28851	-3142.44165	84.55325	310.49066	-3362.23096	48.18524	374.14822	-3390.54492	80.27010	307.06161	-3362.70117	59.25827	261.58063	-3017.70020	1083.54175	191.71231	-3266.48730	1003.03455	102.39420	-3266.40820	647.00348	16.91065	-3270.27637	601.72180	18.98990	-3328.29858	647.72760	26.60585	-3324.78564	602.46313	27.22996	-3292.33667	569.18988	35.34664	-3318.57544	564.39502	161.19228	-3218.93823	552.66522	23.77716	-3188.73462	523.43420	12.51120	0.00000	0.00000	0.00000	0.00000	0.00000	0.00000	-2967.77490	303.93646	48.55964	0.00000	0.00000	0.00000	-2902.65430	333.51599	91.70515	-2979.77344	142.50885	171.96790	-3015.73022	125.85341	129.05489	-2975.51392	123.74515	57.19751
